# xmcd
#
# Track frame offsets: 
#        150
#        26131
#        48049
#        65334
#        82205
#        105468
#        131691
#        155976
#        176373
#        198171
#        220483
#        235983
#        255407
#        274723
#        297818
#        314094
#
# Disc length: 4486 seconds
#
# Revision: 0
# Processed by: cddbd v1.5.2PL0 Copyright (c) Steve Scherf et al.
# Submitted via: ExactAudioCopyFreeDBPlugin 1.0
#
DISCID=ec118410
DTITLE=รวมศิลปิน - บันทึกการแสดงสดคอนเสิร์ต คาราบาว 3 ช่า สามัคคี ตอน 
DTITLE=ลูกทุ่งแฟนเทเชีย แผ่นที่ 1
DYEAR=1900
DGENRE=
TTITLE0=คาราบาว - วณิพก
TTITLE1=คาราบาว - คนจนผู้ยิ่งใหญ่
TTITLE2=คาราบาว - เมด อิน ไทยแลนด์ '52
TTITLE3=คาราบาว - มหาลัย
TTITLE4=คาราบาว - ล้างบาง
TTITLE5=คาราบาว - ยายสำอาง
TTITLE6=แอ็ด คาราบาว และ Af(ตุ้ย, อ๊อฟ, พัดชา) - คนล่าฝัน
TTITLE7=แอ็ด คาราบาว และ Af(ตุ้ย, อ๊อฟ, พัดชา) - ทะเลใจ
TTITLE8=คาราบาว - เจ้าตาก
TTITLE9=คาราบาว - องค์ดำ
TTITLE10=คาราบาว - กระถางดอกไม้ให้คุณ
TTITLE11=คาราบาว - ปาปาย่า ป็อกๆ
TTITLE12=คาราบาว - หลวงตา
TTITLE13=เทียรี่ คาราบาว และ กระแต โฟร์ทีน - แม่สาย
TTITLE14=เล็ก คาราบาว และ สาวมาด เมกะแดนซ์ - บาปบริสุทธิ์
TTITLE15=แอ็ด คาราบาว และ หลิว อาจารียา - ควายไทย
EXTD=
EXTT0=
EXTT1=
EXTT2=
EXTT3=
EXTT4=
EXTT5=
EXTT6=
EXTT7=
EXTT8=
EXTT9=
EXTT10=
EXTT11=
EXTT12=
EXTT13=
EXTT14=
EXTT15=
PLAYORDER=
